<?xml version="1.0" encoding="utf-8"?>
<!-- Designed by Vexels.com - 2020 All Rights Reserved - https://vexels.com/terms-and-conditions/  -->
<svg version="1.1" id="Layer_1" xmlns="http://www.w3.org/2000/svg" xmlns:xlink="http://www.w3.org/1999/xlink" x="0px" y="0px"
	 viewBox="0 0 1200 1200" enable-background="new 0 0 1200 1200" xml:space="preserve">
<path fill="#2E2E3A" d="M1149.998,599.996c0-108.226-31.44-209.24-85.639-294.421c-1.016-2.134-2.295-4.112-3.817-5.886
	C965.734,154.79,804.467,57.156,620.371,50.416c-2.415-0.419-4.857-0.499-7.27-0.25C608.745,50.064,604.378,50,599.998,50
	c-6.49,0-12.944,0.154-19.381,0.379c-3.637-0.604-7.389-0.466-11.014,0.474C280.419,66.683,50.002,306.928,50.002,599.996
	c0,293.149,230.538,533.445,519.83,549.162c2.115,0.529,4.26,0.838,6.402,0.838c1.426,0,2.84-0.157,4.243-0.384
	c6.483,0.227,12.984,0.384,19.522,0.384c4.385,0,8.756-0.064,13.116-0.167c0.905,0.094,1.814,0.171,2.727,0.171
	c1.472,0,2.946-0.167,4.414-0.416C914.176,1138.884,1149.998,896.483,1149.998,599.996z M103.231,612.878
	c1.67,0.33,3.394,0.511,5.161,0.511h170.195c1.559,82.21,17.801,154.674,41.002,216.845H159.73
	C125.442,764.934,105.232,691.135,103.231,612.878z M174.54,343.477h161.217c-31.933,70.621-50.855,143.663-55.929,216.849H108.391
	c-1.283,0-2.535,0.122-3.769,0.298C110.842,481.654,135.601,407.82,174.54,343.477z M1095.377,560.624
	c-1.234-0.176-2.486-0.298-3.769-0.298H921.734c-5.242-73.194-24.797-146.235-57.804-216.849h161.53
	C1064.399,407.82,1089.158,481.654,1095.377,560.624z M868.537,560.326H626.529V343.477h178.166
	C837.138,406.061,862.196,478.976,868.537,560.326z M626.529,290.414V119.471c34.006,29.522,95.079,88.517,147.57,170.943H626.529z
	 M573.467,113.284v177.13H423.938c12.358-20.206,24.941-38.574,37.05-54.877C504.879,176.433,549.222,134.407,573.467,113.284z
	 M573.467,343.477v216.849H333.044c6.251-82.417,31.056-155.701,61.487-216.849H573.467z M331.62,613.389h241.846v216.845H376.109
	C348.038,762.046,333.13,689.567,331.62,613.389z M573.467,883.296v205.411c-23.758-18.259-68.752-56.485-113.232-114.051
	c-22.709-29.388-42.411-59.87-59.146-91.36H573.467z M626.529,1083.231V883.296h171.43c-17.29,31.386-37.634,61.773-61.074,91.075
	C694.829,1026.941,652.342,1063.377,626.529,1083.231z M626.529,830.233V613.389h243.453
	c-1.568,76.173-17.025,148.652-46.126,216.845H626.529z M923.015,613.389h168.593c1.767,0,3.491-0.181,5.161-0.511
	c-2.001,78.257-22.212,152.056-56.499,217.355H880.633C904.617,768.057,921.402,695.596,923.015,613.389z M988.419,290.414H836.312
	c-17.258-30.05-36.978-59.54-59.159-88.269c-27.951-36.202-55.789-66.172-79.553-89.434
	C814.475,136.082,916.668,200.577,988.419,290.414z M495.126,114.235c-22.708,23.102-49.155,52.678-75.697,88.261
	c-21.347,28.619-40.334,57.992-56.957,87.918H211.581C281.839,202.446,381.288,138.789,495.126,114.235z M191.969,883.296h150.128
	c24.007,50.418,51.725,92.402,77.484,125.528c23.344,30.021,46.646,55.038,67.453,75.147
	C365.592,1055.633,261.143,982.625,191.969,883.296z M705.868,1085.543c21.854-20.302,46.467-45.737,71.125-76.372
	c26.724-33.201,55.486-75.299,80.379-125.875h150.658C937.514,984.551,830.331,1058.429,705.868,1085.543z"/>
</svg>
